<?xml version="1.0" standalone="no"?>
<!DOCTYPE svg PUBLIC "-//W3C//DTD SVG 20010904//EN"
 "http://www.w3.org/TR/2001/REC-SVG-20010904/DTD/svg10.dtd">
<svg version="1.0" xmlns="http://www.w3.org/2000/svg"
 width="459.000000pt" height="643.000000pt" viewBox="0 0 459.000000 643.000000"
 preserveAspectRatio="xMidYMid meet">

<g transform="translate(0.000000,643.000000) scale(0.100000,-0.100000)"
fill="#000000" stroke="none">
<path d="M2975 6284 c-24 -14 -72 -19 -256 -25 -151 -5 -238 -13 -260 -22 -27
-10 -30 -15 -16 -20 9 -3 17 -2 17 4 0 6 5 7 10 4 19 -12 10 -23 -32 -40 -24
-9 -50 -23 -58 -30 -8 -7 -34 -19 -57 -26 -24 -7 -45 -20 -48 -30 -3 -10 -28
-34 -55 -53 -75 -54 -104 -101 -128 -208 -22 -100 -23 -161 -4 -180 7 -7 12
-24 12 -39 0 -15 5 -31 10 -34 6 -3 10 -11 10 -16 0 -6 -6 -7 -12 -3 -9 6 -9
3 0 -9 16 -19 11 -122 -13 -232 -8 -38 -15 -93 -15 -121 0 -70 -20 -85 -70
-52 -42 27 -67 30 -105 13 -34 -17 -35 -17 -82 14 -25 17 -57 31 -69 31 -27 0
-74 -37 -93 -74 -24 -44 -48 -43 -90 3 -31 34 -44 41 -76 41 -25 0 -47 8 -67
25 -63 53 -146 18 -157 -66 -6 -42 -8 -44 -47 -53 -37 -7 -50 -4 -110 24 -68
33 -108 39 -170 25 -22 -5 -34 -2 -43 9 -18 22 -81 20 -108 -3 -33 -27 -30
-68 8 -107 l31 -32 -18 -49 c-22 -60 -32 -73 -54 -73 -10 0 -33 -12 -50 -26
-17 -15 -34 -24 -37 -21 -3 4 -7 30 -8 59 -2 29 -8 76 -14 104 -14 61 -19 64
-140 64 -75 0 -89 3 -122 26 -21 14 -55 30 -76 35 -57 13 -145 10 -173 -6 -14
-8 -35 -14 -47 -15 l-23 0 0 -221 0 -221 29 -29 c16 -16 33 -44 36 -61 4 -18
12 -38 17 -45 10 -13 15 -38 25 -120 l5 -53 -33 -1 -34 -1 33 -14 c26 -11 32
-20 32 -45 0 -17 12 -61 27 -97 25 -61 28 -79 28 -187 -1 -167 -18 -224 -67
-216 -4 0 -15 -10 -23 -23 -9 -13 -29 -29 -45 -36 -29 -12 -30 -15 -30 -81 l0
-68 42 -3 c46 -3 55 -17 44 -64 -5 -20 -12 -24 -46 -24 -36 0 -40 -3 -40 -25
0 -19 5 -25 21 -25 11 0 29 -5 39 -10 17 -9 18 -14 8 -35 -11 -25 -18 -29 -49
-26 -13 2 -17 -7 -17 -40 -1 -33 3 -42 20 -47 19 -5 20 -11 16 -126 -2 -95 -7
-126 -20 -146 -17 -22 -18 -64 -18 -517 l0 -492 37 -4 38 -4 -37 -1 c-43 -2
-49 -14 -15 -29 l22 -11 -25 -10 c-24 -11 -24 -11 8 -11 18 -1 42 -6 53 -12
11 -6 25 -8 32 -6 7 3 0 10 -15 16 -16 6 -28 15 -28 20 0 15 59 -11 93 -42 22
-19 25 -25 10 -17 -31 14 -35 13 -21 -10 7 -11 18 -20 24 -20 7 0 38 -21 70
-47 l58 -47 -27 -11 -27 -11 41 -42 c41 -44 69 -96 69 -132 0 -11 -4 -20 -9
-20 -5 0 -5 -18 1 -42 10 -45 1 -191 -11 -184 -4 3 -8 -7 -9 -22 -4 -52 -19
-128 -21 -99 -1 24 -4 27 -26 21 -21 -5 -25 -3 -26 17 l0 24 -11 -22 c-11 -22
-13 -22 -68 8 -8 5 -29 15 -47 23 -27 12 -65 56 -48 56 4 0 -1 7 -10 16 -9 10
-14 26 -12 38 3 12 1 30 -3 41 -6 15 -9 6 -9 -31 -1 -39 5 -60 25 -90 15 -21
31 -42 36 -45 5 -3 6 -22 2 -43 -6 -34 -3 -41 28 -74 46 -49 68 -82 68 -104 0
-37 -140 -18 -188 25 -12 11 -22 16 -22 10 0 -5 9 -18 21 -29 11 -10 18 -26
16 -36 -3 -10 -1 -18 5 -18 5 0 6 -4 3 -10 -3 -5 2 -10 12 -11 10 0 26 -2 36
-4 11 -2 15 1 10 8 -4 7 1 6 10 -2 17 -13 23 -6 18 22 0 4 4 7 9 7 6 0 10 -6
10 -12 0 -9 4 -8 10 2 5 8 10 11 10 5 0 -5 5 -3 10 5 8 13 10 12 10 -2 0 -23
16 -23 28 -2 7 13 16 15 44 8 l34 -9 -64 -180 c-35 -99 -76 -225 -91 -280
l-27 -101 77 46 c43 25 113 64 157 88 51 28 127 86 213 162 133 118 146 125
230 135 42 5 68 17 92 41 l26 26 48 -28 c27 -15 61 -40 77 -55 15 -15 41 -39
57 -55 30 -29 26 -44 -14 -44 -10 0 -21 -10 -26 -22 -5 -13 -23 -36 -40 -52
-17 -17 -31 -38 -31 -48 0 -10 -4 -17 -8 -15 -5 1 -38 -27 -73 -63 -36 -36
-106 -104 -157 -153 -51 -48 -92 -92 -92 -97 0 -6 -6 -10 -13 -10 -26 0 -122
-176 -111 -204 5 -14 43 -16 284 -15 152 1 283 5 290 9 7 4 25 4 40 -2 15 -5
49 -8 75 -6 l47 3 -27 30 c-30 35 -85 111 -85 119 0 13 54 -42 83 -84 51 -75
31 -71 342 -65 154 2 289 4 300 4 166 -4 2419 -8 2442 -4 38 7 111 69 94 79
-6 4 -11 3 -11 -2 0 -7 -40 -9 -83 -3 -8 1 14 29 23 29 26 -1 40 4 35 12 -3 6
-1 10 4 10 6 0 10 15 10 33 -2 30 -2 30 -6 5 -4 -27 -18 -37 -25 -19 -1 5 -10
2 -18 -7 -13 -14 -12 -15 3 -9 9 3 17 2 17 -3 0 -6 -9 -10 -19 -10 -11 0 -28
-3 -38 -7 -15 -6 -16 -4 -5 9 11 13 9 15 -15 10 -16 -3 -22 -7 -14 -10 8 -3
-2 -12 -25 -24 -33 -16 -35 -18 -10 -13 24 5 27 3 22 -10 -3 -9 -6 -20 -6 -25
0 -17 -46 -24 -125 -21 -44 2 -83 8 -87 14 -4 8 -18 7 -46 -2 -49 -16 -85 -7
-77 19 4 14 0 19 -17 22 -13 2 -22 9 -20 17 2 9 -6 11 -30 6 -37 -8 -62 -25
-36 -25 13 0 28 -19 28 -36 0 -8 -52 -4 -71 6 -13 8 -19 7 -19 0 0 -10 -44
-10 -422 6 -123 5 -158 10 -158 20 0 19 -56 45 -83 39 -12 -4 -27 -16 -32 -28
-6 -12 -20 -23 -32 -25 -17 -3 -22 3 -25 24 -3 31 -28 46 -28 17 0 -10 -9 -24
-20 -31 -11 -7 -20 -8 -20 -3 0 6 4 12 9 15 4 3 7 18 5 33 -4 24 -3 25 5 8 7
-15 10 -16 11 -5 2 8 2 20 1 26 -2 18 76 25 149 14 36 -5 71 -10 77 -10 14 0
13 -21 -1 -31 -5 -4 -6 -12 -2 -17 9 -16 38 -2 32 14 -3 8 -2 13 2 13 34 -5
52 3 49 23 -2 20 2 22 37 19 22 -1 48 -4 58 -6 10 -2 18 1 18 6 0 6 8 3 17 -6
11 -12 26 -15 50 -12 30 5 32 4 23 -13 -5 -10 -10 -28 -10 -39 0 -17 6 -21 35
-21 25 0 35 4 35 16 0 8 -4 13 -9 10 -5 -3 -11 4 -15 17 -9 33 -7 39 7 34 17
-6 47 11 47 28 0 8 9 20 20 27 27 17 25 28 -6 28 -30 0 -54 -21 -54 -47 0 -15
-8 -18 -58 -18 -31 1 -62 3 -67 7 -6 3 -37 9 -70 12 -83 10 -101 16 -84 27 18
12 -57 5 -91 -8 -14 -6 -32 -13 -40 -16 -9 -3 -10 -6 -2 -6 17 -1 15 -21 -3
-21 -8 0 -19 16 -24 38 l-11 37 -72 2 c-68 2 -71 2 -48 -12 14 -8 33 -14 43
-15 9 0 17 -5 17 -11 0 -5 -4 -8 -9 -4 -5 3 -30 0 -56 -7 -32 -9 -44 -16 -40
-27 7 -18 -32 -46 -65 -46 -14 0 -25 -6 -26 -12 -1 -7 -2 -20 -3 -28 -1 -19
-61 -21 -61 -2 0 8 -4 7 -10 -3 -8 -13 -10 -12 -10 3 0 21 -26 22 -47 2 -13
-13 -45 -16 -194 -14 -99 1 -182 5 -185 10 -3 5 9 9 25 9 17 0 31 4 31 9 0 12
-84 5 -88 -8 -7 -22 -22 -10 -22 18 0 28 2 30 60 38 34 4 61 13 60 18 0 6 -4
10 -9 10 -5 0 -13 3 -17 8 -4 4 0 7 9 7 10 0 17 7 17 15 0 8 5 15 11 15 6 0 9
-7 5 -15 -3 -9 0 -15 9 -15 9 0 12 6 9 15 -6 14 10 19 53 18 19 -1 26 36 13
68 -11 24 -18 29 -49 29 -20 0 -77 3 -128 7 -74 4 -101 2 -134 -11 -42 -17
-43 -17 -61 6 -23 30 -23 65 0 72 33 10 570 -4 1067 -29 183 -9 776 -16 811
-9 29 5 31 8 19 20 -14 15 -29 19 -22 7 3 -5 -14 -8 -38 -9 -31 0 -40 2 -32
11 6 6 24 12 41 13 16 2 32 5 35 9 4 3 -18 3 -47 0 -64 -7 -88 -1 -71 19 17
21 2 17 -20 -5 -11 -11 -17 -22 -13 -25 3 -3 1 -6 -5 -6 -6 0 -10 14 -9 31 1
23 -4 32 -16 34 -10 2 -18 -1 -18 -6 0 -5 -10 -9 -22 -10 -22 0 -22 -1 -3 -9
19 -8 19 -9 -2 -9 -13 -1 -23 3 -23 7 0 10 -30 9 -47 -1 -15 -9 -48 -10 -98
-2 -55 8 -67 13 -60 24 6 11 45 10 45 -1 0 -15 68 -8 74 7 5 14 9 14 35 0 21
-10 32 -12 37 -4 3 6 17 9 29 7 16 -4 22 -1 18 9 -5 13 27 18 86 13 16 -1 21
2 16 10 -5 8 -22 10 -46 7 -22 -3 -39 -1 -42 6 -1 5 -24 11 -50 13 -27 1 -45
-1 -42 -7 4 -5 -4 -9 -17 -9 -19 0 -20 -2 -8 -11 12 -8 11 -9 -5 -7 -11 2 -19
11 -19 20 1 13 -5 15 -35 11 -44 -7 -65 -23 -30 -24 l24 0 -23 -10 c-38 -15
-72 -18 -72 -7 0 5 9 12 20 15 33 9 23 23 -17 25 -120 6 -152 1 -100 -18 17
-6 12 -8 -28 -11 -27 -3 -54 -8 -61 -13 -16 -14 -106 -2 -123 15 -14 13 -5 15
74 16 50 1 93 1 98 0 4 0 7 4 7 9 0 6 -3 10 -7 11 -5 0 -24 2 -43 4 -19 2 -43
-1 -54 -7 -13 -7 -21 -7 -26 2 -5 9 -78 14 -260 18 l-252 5 11 -22 c10 -18 9
-21 -9 -21 -11 0 -29 -6 -40 -12 -16 -10 -25 -10 -47 3 -29 16 -73 12 -75 -6
-4 -40 -11 -47 -43 -42 -18 3 -37 1 -42 -4 -7 -7 -19 -1 -34 15 -22 23 -57 37
-45 18 3 -5 -9 -6 -26 -4 -29 4 -30 6 -13 18 10 8 14 14 9 14 -6 0 -13 -3 -17
-6 -3 -4 -31 -8 -61 -10 -51 -4 -54 -3 -49 17 5 19 3 20 -18 14 -36 -11 -47
-25 -20 -25 33 0 20 -24 -15 -28 -20 -2 -25 0 -15 7 10 7 6 11 -19 16 -39 9
-140 -3 -140 -16 0 -12 -111 -11 -130 1 -11 7 -7 10 18 10 18 0 40 7 48 15 13
12 12 15 -7 25 -12 7 -32 9 -47 4 -44 -12 -57 -10 -54 9 4 21 -6 22 -28 2 -10
-9 -35 -18 -56 -21 -22 -2 -33 -2 -26 2 6 3 12 10 12 15 0 14 -69 11 -122 -5
-54 -17 -158 -18 -155 -2 4 20 -37 5 -128 -46 -49 -29 -100 -58 -113 -66 -12
-8 -22 -12 -22 -10 0 3 47 37 105 77 170 117 123 110 751 100 560 -9 1434 -24
2042 -36 406 -7 369 -19 327 106 -36 107 -58 239 -59 366 -1 107 0 112 39 200
l40 90 3 1130 2 1130 -29 32 c-16 18 -27 34 -25 37 2 3 1 4 -3 1 -3 -3 -27 15
-52 40 -25 24 -95 84 -155 132 l-108 88 -42 135 c-24 74 -59 167 -79 205 -20
39 -39 84 -42 102 -5 27 -3 32 17 39 35 11 62 11 76 1 8 -7 12 -4 12 11 0 26
-39 41 -54 20 -17 -22 -72 -30 -86 -13 -7 8 -25 15 -40 15 -15 0 -44 7 -65 16
-20 8 -94 26 -163 40 -293 57 -580 113 -626 120 -45 8 -52 13 -70 51 -12 23
-27 42 -33 43 -7 0 -13 4 -13 10 0 5 7 7 16 3 8 -3 33 2 55 11 21 9 57 23 79
33 22 9 46 23 52 31 7 7 -6 4 -27 -9 -48 -27 -155 -36 -155 -13 0 8 10 14 24
14 32 0 57 10 51 20 -3 5 -1 11 5 15 5 3 10 13 10 21 0 12 -4 13 -21 4 -11 -7
-23 -9 -26 -6 -8 8 16 34 37 41 23 7 35 36 19 46 -10 6 -9 18 4 51 33 90 43
141 66 322 7 59 33 96 67 96 40 0 90 -124 67 -165 -8 -14 2 -29 53 -81 34 -35
68 -64 74 -64 15 0 45 35 70 82 24 45 104 108 137 108 13 0 37 -7 53 -15 38
-20 38 -6 -1 34 -18 20 -28 38 -25 49 3 9 17 85 31 167 28 167 38 185 104 185
46 0 56 -7 70 -52 7 -20 15 -38 19 -40 12 -5 88 -112 102 -143 14 -31 30 -114
33 -175 3 -49 -24 -51 -74 -5 -35 31 -45 35 -72 29 -47 -10 -64 -21 -79 -51
-7 -15 -22 -32 -33 -38 -15 -7 -19 -18 -17 -41 4 -40 -21 -63 -49 -46 -39 25
-108 9 -96 -22 4 -10 -2 -25 -14 -37 l-21 -21 28 -19 c40 -26 55 -24 86 13
l26 33 19 -33 c10 -17 21 -32 25 -32 9 0 38 -29 38 -38 0 -4 -19 -13 -41 -20
-34 -11 -45 -10 -63 1 -23 16 -54 9 -75 -17 -11 -13 -11 -16 0 -20 8 -2 44
-15 81 -27 l67 -23 24 22 c23 22 64 22 51 0 -4 -6 4 -4 17 2 16 9 61 11 155 8
l133 -5 -17 26 c-9 14 -24 37 -34 50 -22 29 -23 66 -2 122 14 36 16 73 13 199
-7 300 -3 646 8 727 12 91 23 113 60 113 28 0 63 16 63 29 0 5 -17 9 -37 9
-21 -1 -81 4 -133 10 -52 6 -121 12 -153 12 -35 0 -75 8 -100 19 -35 15 -78
20 -247 25 -113 3 -277 8 -365 11 -139 5 -164 3 -190 -11z m-134 -320 c32 -9
80 -36 118 -65 35 -26 67 -50 70 -51 3 -2 17 -15 30 -30 24 -28 44 -110 31
-125 -4 -4 -13 -25 -20 -46 -10 -32 -9 -42 5 -63 9 -14 19 -44 21 -67 3 -23
10 -45 17 -49 6 -3 -9 -8 -33 -10 -53 -4 -58 -19 -12 -33 28 -8 32 -14 32 -42
0 -22 -6 -36 -20 -43 -11 -6 -17 -16 -14 -25 4 -8 2 -15 -3 -15 -5 0 -10 -6
-11 -12 -2 -31 -21 -126 -32 -163 -6 -22 -12 -49 -13 -60 -2 -30 -58 -87 -80
-81 -10 2 -21 -2 -24 -10 -3 -8 -10 -11 -16 -7 -6 3 -7 1 -3 -5 4 -7 16 -12
26 -12 18 0 18 -2 3 -37 -8 -21 -22 -46 -31 -56 -14 -16 -17 -16 -24 -2 -11
19 -28 20 -28 0 0 -8 -4 -15 -10 -15 -5 0 -10 6 -10 14 0 25 -27 25 -40 0 -8
-13 -16 -24 -20 -24 -3 0 -16 -9 -28 -20 -14 -13 -22 -16 -22 -8 0 9 -2 10 -8
2 -4 -7 -18 -11 -32 -10 -14 1 -31 -4 -37 -10 -15 -14 -159 -10 -178 6 -6 5
-15 7 -18 3 -4 -3 -7 1 -7 10 0 10 -7 17 -15 17 -8 0 -15 6 -15 13 0 7 -10 14
-22 14 -13 1 -28 10 -35 20 -7 10 -22 28 -34 39 -12 12 -19 26 -16 31 8 14 -9
37 -22 29 -6 -4 -11 -16 -11 -27 0 -21 -15 -25 -26 -7 -4 6 -7 27 -7 47 0 20
-2 28 -4 19 -4 -14 -8 -15 -24 -5 -10 6 -19 22 -19 34 0 12 -5 23 -11 25 -15
5 -27 71 -23 125 3 27 6 113 7 191 3 109 7 146 17 152 8 5 19 6 25 3 5 -4 7
-3 3 2 -4 4 0 14 10 22 16 12 16 13 -1 7 -18 -7 -53 15 -40 25 4 3 26 41 48
84 24 47 50 84 65 92 14 7 42 33 62 58 28 34 46 46 76 50 21 4 61 19 88 33
105 58 131 68 179 75 84 11 109 10 166 -7z m-382 -48 c-8 -8 -60 -15 -55 -8 2
4 17 9 32 10 15 1 25 0 23 -2z m1561 -687 c0 -20 -15 -26 -25 -9 -9 15 3 43
15 35 5 -3 10 -15 10 -26z m-1990 -185 c55 -30 71 -48 62 -73 l-8 -23 -30 24
c-16 13 -44 30 -61 37 -25 10 -33 20 -33 38 0 21 3 23 23 17 12 -3 33 -13 47
-20z m100 -128 c0 -8 -8 -17 -17 -19 -14 -4 -12 -5 5 -6 16 -1 22 -7 22 -25 0
-13 -6 -26 -14 -29 -7 -3 -31 -34 -52 -69 -53 -89 -91 -124 -139 -131 l-40 -6
30 14 30 14 -28 1 c-21 0 -30 -6 -34 -20 -3 -11 -12 -20 -19 -20 -17 0 -18 16
-3 26 8 5 8 9 -1 14 -10 6 -10 15 -1 41 13 38 8 50 -9 20 -6 -12 -21 -21 -35
-21 -16 0 -30 -10 -41 -29 -10 -17 -21 -28 -26 -25 -5 3 -6 8 -4 12 2 4 -7 8
-20 8 -17 1 -30 -8 -46 -35 -12 -20 -26 -39 -31 -42 -6 -4 -1 -9 9 -11 16 -4
15 -7 -9 -16 -15 -7 -40 -14 -55 -18 l-27 -5 28 24 c42 35 77 118 70 164 l-5
38 26 -29 c14 -16 26 -33 26 -38 0 -5 10 0 22 12 12 11 25 20 30 20 4 0 8 7 8
15 0 8 -7 15 -15 15 -18 0 -20 21 -3 38 14 14 11 17 -25 26 -24 6 -28 4 -23
-11 7 -22 -42 -49 -58 -33 -6 6 -13 5 -20 -4 -9 -10 -28 -11 -93 -3 -46 6 -83
14 -83 18 0 4 12 17 28 29 24 20 34 21 107 15 74 -6 85 -4 145 23 51 23 96 33
204 46 77 9 142 19 145 21 10 11 41 4 41 -9z m-1802 -15 c10 -6 7 -18 -16 -52
-16 -24 -37 -61 -47 -81 -17 -38 -35 -42 -35 -10 0 19 44 118 62 139 12 15 18
16 36 4z m362 -111 c0 -5 -2 -10 -4 -10 -3 0 -8 5 -11 10 -3 6 -1 10 4 10 6 0
11 -4 11 -10z m1481 -12 c33 -63 153 -140 237 -153 37 -6 41 -5 35 10 -6 16 2
17 99 13 97 -5 108 -8 134 -32 16 -14 34 -26 41 -26 20 0 64 22 136 67 37 24
70 43 72 43 3 0 1 -9 -5 -21 -7 -11 -9 -23 -6 -26 3 -3 1 -15 -5 -26 -9 -15
-8 -18 3 -11 11 6 11 5 -1 -9 -7 -9 -10 -17 -6 -17 5 0 2 -8 -6 -17 -22 -27
-49 -91 -49 -116 1 -25 22 -57 38 -57 5 0 13 -7 16 -16 4 -9 10 -14 13 -10 6
5 12 145 13 285 0 27 11 3 25 -56 17 -71 18 -142 4 -236 -10 -65 -2 -249 16
-365 2 -13 9 -78 15 -145 5 -67 15 -156 20 -197 5 -41 12 -111 15 -155 12
-177 37 -422 52 -500 l5 -30 -33 31 c-49 45 -117 82 -196 105 -59 17 -85 19
-193 14 -178 -9 -225 -33 -392 -194 l-78 -74 0 35 c0 20 6 39 13 41 7 3 5 6
-5 6 -14 1 -18 10 -19 39 0 20 -2 44 -4 52 -1 9 -5 108 -9 220 -8 253 -15 449
-21 560 -3 47 -7 141 -10 210 -6 146 -12 239 -22 370 -5 52 -8 148 -8 212 0
106 2 119 23 147 13 17 20 36 17 41 -3 6 -2 10 4 10 6 0 16 -10 22 -22z m-523
-73 c5 -40 -20 -84 -68 -118 -25 -18 -37 -33 -33 -42 3 -10 -6 -20 -28 -29
-34 -14 -219 -56 -219 -50 0 2 36 52 80 111 44 59 82 120 86 136 l6 28 86 -3
87 -3 3 -30z m852 5 c0 -5 -4 -10 -10 -10 -5 0 -10 5 -10 10 0 6 5 10 10 10 6
0 10 -4 10 -10z m-1153 -75 c11 -48 5 -60 -27 -50 -27 9 -35 41 -16 70 23 35
31 31 43 -20z m468 5 c4 -6 12 -7 19 -3 7 4 3 0 -7 -10 -12 -11 -27 -15 -39
-11 -14 4 -24 -1 -34 -15 -9 -12 -24 -21 -34 -21 -18 0 -17 2 4 23 20 20 61
45 78 46 4 1 10 -4 13 -9z m-1671 -989 c-2 -2 -10 -1 -18 2 -9 4 -12 14 -9 27
6 21 6 21 18 -2 6 -13 10 -25 9 -27z m296 -591 c0 -5 -4 -10 -9 -10 -6 0 -13
5 -16 10 -3 6 1 10 9 10 9 0 16 -4 16 -10z m3634 -265 c-4 -8 -12 -15 -20 -15
-8 0 -11 6 -8 15 4 8 12 15 20 15 8 0 11 -6 8 -15z m-691 -73 c15 -25 17 -36
8 -45 -8 -8 -25 2 -66 43 -30 30 -55 58 -55 62 0 4 21 0 47 -10 33 -12 53 -27
66 -50z m707 30 c0 -5 -7 -9 -15 -9 -8 0 -15 4 -15 9 0 4 7 8 15 8 8 0 15 -4
15 -8z m-2033 -32 c29 -17 32 -23 27 -52 -13 -70 -70 -151 -170 -243 -53 -49
-130 -122 -170 -163 -45 -45 -78 -71 -85 -66 -7 4 -9 3 -6 -3 4 -6 1 -17 -6
-26 -10 -15 -18 -15 -52 -6 -22 7 -34 14 -27 16 6 3 12 10 12 18 0 7 6 18 14
24 11 10 15 9 19 -4 4 -11 4 -11 3 2 -1 10 -8 17 -14 15 -7 -1 -26 5 -43 14
-40 20 -61 4 -31 -22 12 -10 19 -22 15 -26 -3 -5 -12 -2 -22 7 -72 71 -99 89
-127 86 -5 0 -20 8 -32 19 -26 25 -29 69 -7 131 9 24 12 39 6 34 -5 -6 -20
-46 -33 -90 -22 -70 -23 -84 -12 -115 7 -19 13 -31 13 -27 1 11 77 -32 98 -55
13 -14 13 -18 2 -19 -8 0 -23 -2 -34 -3 -11 -1 -29 6 -39 16 -19 18 -19 18 0
19 11 0 14 3 6 6 -7 3 -20 -1 -29 -9 -15 -11 -16 -11 -10 6 6 15 5 17 -6 8
-15 -13 -57 -5 -57 10 0 6 -7 5 -15 -2 -11 -9 -15 -9 -15 -1 0 6 11 16 24 21
13 5 27 14 31 19 9 16 -2 14 -30 -5 -20 -13 -25 -14 -25 -3 0 11 -2 11 -10 -1
-16 -24 -11 1 10 59 21 59 80 161 92 161 4 0 8 6 8 13 0 14 130 160 137 154 2
-3 -9 -19 -24 -35 -16 -17 -36 -46 -46 -64 -18 -32 -18 -32 0 -10 92 119 142
148 280 163 54 5 141 18 193 29 124 24 149 24 187 0z m2087 -12 c9 -12 16 -18
16 -13 0 6 4 4 9 -4 5 -8 7 -20 4 -27 -6 -16 -33 -6 -33 12 0 8 -9 19 -20 26
-23 15 -26 28 -6 28 8 0 22 -10 30 -22z m-714 -42 c0 -18 -27 -29 -36 -14 -4
5 0 14 7 19 20 13 29 11 29 -5z m765 -26 c3 -5 -1 -10 -10 -10 -9 0 -13 5 -10
10 3 6 8 10 10 10 2 0 7 -4 10 -10z m-546 -66 c28 -31 63 -75 77 -99 25 -43
25 -44 6 -62 -10 -10 -29 -24 -41 -31 -21 -12 -26 -10 -64 30 l-42 43 -1 88
c0 48 3 87 7 87 4 0 30 -25 58 -56z m-3389 -630 c0 -2 -9 0 -20 6 -11 6 -20
13 -20 16 0 2 9 0 20 -6 11 -6 20 -13 20 -16z m35 -22 c-3 -3 -11 0 -18 7 -9
10 -8 11 6 5 10 -3 15 -9 12 -12z m9 -707 c15 -11 17 -21 12 -49 l-7 -36 -26
17 -26 17 5 -28 6 -28 -29 28 c-16 16 -31 43 -35 60 -6 31 -6 31 38 32 23 1
51 -5 62 -13z m83 -87 c-3 -7 -5 -2 -5 12 0 14 2 19 5 13 2 -7 2 -19 0 -25z
m-17 -25 c0 -45 -5 -40 -13 10 -3 22 -2 35 4 32 5 -4 9 -22 9 -42z m-215 -110
c1 -12 -3 -19 -10 -17 -14 6 -17 46 -3 42 6 -2 12 -14 13 -25z m2784 -429 c2
-2 -14 -4 -37 -4 -30 0 -42 4 -42 14 0 12 7 12 38 4 20 -5 39 -12 41 -14z
m204 15 c24 -1 36 -6 34 -13 -3 -6 -11 -9 -18 -7 -8 2 -37 3 -66 3 -38 0 -50
3 -47 12 3 8 16 12 32 10 15 -2 44 -5 65 -5z m-1368 -19 c-3 -4 -15 -6 -27 -2
-21 5 -21 6 -2 12 21 8 37 3 29 -10z m1450 -26 c70 -7 84 -12 65 -24 -25 -16
-120 -12 -137 6 -9 8 -22 13 -30 10 -19 -8 -35 2 -27 16 4 6 21 7 43 3 20 -3
59 -8 86 -11z m-880 -4 c3 -5 -1 -10 -9 -10 -9 0 -16 5 -16 10 0 6 4 10 9 10
6 0 13 -4 16 -10z m105 -6 c0 -2 -12 -4 -26 -4 -14 0 -23 4 -20 9 6 8 46 4 46
-5z m274 7 c14 -5 16 -10 7 -15 -16 -10 -63 2 -56 14 7 12 22 12 49 1z m126 0
c0 -12 -20 -25 -27 -18 -7 7 6 27 18 27 5 0 9 -4 9 -9z m210 -6 c0 -8 -4 -15
-9 -15 -13 0 -22 16 -14 24 11 11 23 6 23 -9z m-50 -11 c0 -2 -12 -4 -26 -4
-14 0 -23 4 -20 9 6 8 46 4 46 -5z m530 0 c0 -2 -9 -4 -21 -4 -11 0 -18 4 -14
10 5 8 35 3 35 -6z m-637 -1 c-7 -2 -19 -2 -25 0 -7 3 -2 5 12 5 14 0 19 -2
13 -5z m220 -10 c-7 -2 -19 -2 -25 0 -7 3 -2 5 12 5 14 0 19 -2 13 -5z m-1873
-57 c0 -2 -7 -7 -16 -10 -8 -3 -12 -2 -9 4 6 10 25 14 25 6z m457 -12 c-3 -3
-12 -4 -19 -1 -8 3 -5 6 6 6 11 1 17 -2 13 -5z m-507 -18 c0 -2 -7 -7 -16 -10
-8 -3 -12 -2 -9 4 6 10 25 14 25 6z m500 -16 c0 -5 -5 -10 -11 -10 -5 0 -7 5
-4 10 3 6 8 10 11 10 2 0 4 -4 4 -10z m-134 -10 c20 -8 24 -14 16 -22 -7 -7
-19 -7 -41 3 -54 24 -32 40 25 19z m94 -10 c0 -5 -7 -10 -16 -10 -8 0 -12 5
-9 10 3 6 10 10 16 10 5 0 9 -4 9 -10z m-550 -20 c-14 -11 -29 -20 -35 -20 -5
0 4 9 20 20 38 25 48 25 15 0z m366 -27 c-10 -10 -19 5 -10 18 6 11 8 11 12 0
2 -7 1 -15 -2 -18z m134 -13 c0 -17 -38 -30 -92 -33 -44 -2 -53 -5 -50 -19 2
-10 -1 -18 -5 -18 -14 0 -35 17 -33 26 1 5 -3 10 -9 12 -6 2 -11 -3 -11 -12 0
-9 -4 -16 -9 -16 -5 0 -7 9 -4 20 4 14 19 22 57 29 113 22 156 25 156 11z
m-60 -61 c0 -5 -9 -9 -20 -9 -19 0 -26 11 -14 23 8 8 34 -3 34 -14z m-103 -65
c-9 -9 -28 6 -21 18 4 6 10 6 17 -1 6 -6 8 -13 4 -17z m-67 5 c0 -7 8 -18 18
-25 15 -12 15 -15 2 -24 -27 -17 -45 -6 -55 33 -6 23 -4 27 14 27 12 0 21 -5
21 -11z m1595 -49 c3 -5 1 -10 -4 -10 -6 0 -11 5 -11 10 0 6 2 10 4 10 3 0 8
-4 11 -10z m255 -50 c0 -5 -4 -10 -10 -10 -5 0 -10 5 -10 10 0 6 5 10 10 10 6
0 10 -4 10 -10z"/>
<path d="M2316 5681 c-11 -12 -27 -21 -37 -21 -10 0 -23 -9 -29 -20 -10 -18
-8 -20 19 -20 16 0 33 5 36 10 5 8 12 7 23 -2 12 -10 14 -10 8 0 -4 6 -2 12 3
12 6 0 11 -5 11 -11 0 -5 4 -8 9 -4 5 3 49 -1 97 -10 47 -8 89 -15 92 -15 19
0 -63 54 -108 71 -85 32 -103 33 -124 10z"/>
<path d="M2764 5615 c-12 -8 -25 -11 -29 -7 -5 4 -5 2 -1 -5 3 -6 -1 -13 -11
-16 -21 -5 21 -9 130 -11 58 -2 82 -6 94 -19 16 -16 16 -17 -7 -18 -22 -1 -20
-2 8 -10 18 -5 30 -14 27 -19 -4 -6 -1 -10 4 -10 6 0 10 -5 9 -12 -2 -6 9 -13
23 -14 26 -3 26 -2 16 34 -6 20 -29 56 -51 80 l-40 42 -76 0 c-50 0 -83 -5
-96 -15z"/>
<path d="M2258 5603 c12 -2 30 -2 40 0 9 3 -1 5 -23 4 -22 0 -30 -2 -17 -4z"/>
<path d="M2210 5590 c-8 -5 -12 -12 -9 -15 4 -3 12 1 19 10 14 17 11 19 -10 5z"/>
<path d="M2240 5575 c0 -8 2 -15 4 -15 2 0 6 7 10 15 3 8 1 15 -4 15 -6 0 -10
-7 -10 -15z"/>
<path d="M2518 5583 c6 -2 18 -2 25 0 6 3 1 5 -13 5 -14 0 -19 -2 -12 -5z"/>
<path d="M2305 5561 c-12 -5 -27 -16 -34 -25 -7 -9 -17 -14 -21 -11 -5 3 -7
-3 -6 -12 2 -15 14 -18 69 -19 46 -1 70 3 78 12 7 9 8 14 1 14 -5 0 -8 9 -5
20 3 13 0 20 -8 20 -8 0 -23 2 -34 5 -11 2 -29 0 -40 -4z"/>
<path d="M2678 5563 c6 -2 18 -2 25 0 6 3 1 5 -13 5 -14 0 -19 -2 -12 -5z"/>
<path d="M2648 5503 c6 -2 18 -2 25 0 6 3 1 5 -13 5 -14 0 -19 -2 -12 -5z"/>
<path d="M2865 5496 c30 -13 65 -46 49 -46 -4 0 1 -7 12 -15 22 -17 60 -20 69
-5 7 12 -23 56 -45 66 -8 3 -37 8 -65 10 -49 3 -49 3 -20 -10z"/>
<path d="M2835 5480 c-3 -5 -1 -10 4 -10 6 0 11 5 11 10 0 6 -2 10 -4 10 -3 0
-8 -4 -11 -10z"/>
<path d="M2808 5453 c7 -3 16 -2 19 1 4 3 -2 6 -13 5 -11 0 -14 -3 -6 -6z"/>
<path d="M2686 5427 c3 -10 9 -15 12 -12 3 3 0 11 -7 18 -10 9 -11 8 -5 -6z"/>
<path d="M2460 5260 c-12 -8 -12 -11 3 -28 21 -23 86 -29 66 -6 -6 8 -20 14
-30 14 -11 0 -19 4 -19 10 0 9 42 -3 65 -18 5 -4 24 -9 40 -11 17 -1 34 -7 40
-12 5 -5 19 -9 31 -9 12 0 24 -5 26 -11 2 -7 12 0 21 15 10 15 13 26 7 26 -7
0 -19 7 -27 16 -13 12 -28 14 -73 9 -38 -4 -60 -3 -64 4 -9 13 -65 14 -86 1z
m219 -24 c-10 -10 -59 -14 -59 -5 0 5 14 9 32 9 17 0 29 -2 27 -4z"/>
<path d="M2395 5115 c-22 -8 -48 -12 -57 -9 -10 3 -18 1 -18 -4 0 -22 34 -34
107 -37 129 -7 241 -20 250 -29 4 -5 1 -7 -7 -4 -11 4 -16 0 -16 -13 0 -25 15
-24 70 4 l46 23 -28 21 c-15 11 -43 25 -62 31 -38 13 -120 12 -120 -1 0 -5 -7
-1 -16 7 -8 9 -24 16 -33 16 -10 0 -31 2 -47 5 -16 3 -47 -2 -69 -10z"/>
<path d="M2410 5036 c0 -9 5 -16 10 -16 6 0 10 4 10 9 0 6 -4 13 -10 16 -5 3
-10 -1 -10 -9z"/>
<path d="M2480 4992 c0 -5 7 -13 16 -16 25 -9 117 -7 134 4 11 7 3 10 -30 10
-25 0 -62 3 -82 6 -23 4 -38 3 -38 -4z"/>
<path d="M2225 4971 c-3 -5 -1 -12 5 -16 5 -3 10 1 10 9 0 18 -6 21 -15 7z"/>
<path d="M1923 4760 c-13 -21 -23 -49 -23 -62 l1 -23 12 23 c7 12 16 20 19 16
8 -7 22 59 17 75 -2 6 -14 -7 -26 -29z"/>
<path d="M2136 4718 c-10 -40 -7 -107 8 -141 19 -44 73 -106 73 -84 0 9 -4 17
-9 17 -4 0 -7 3 -6 8 1 4 -8 34 -21 67 -12 33 -24 80 -26 104 -5 51 -10 60
-19 29z"/>
<path d="M2258 4343 c7 -3 16 -2 19 1 4 3 -2 6 -13 5 -11 0 -14 -3 -6 -6z"/>
<path d="M2233 4318 c-23 -30 -24 -41 -2 -21 12 12 20 25 17 28 -3 3 -10 0
-15 -7z"/>
<path d="M2878 4277 c-7 -7 -24 -21 -38 -30 -15 -11 -19 -17 -9 -17 8 0 25 7
37 16 12 8 26 13 31 10 5 -4 7 3 4 14 -6 24 -8 24 -25 7z"/>
<path d="M2071 5514 c0 -11 3 -14 6 -6 3 7 2 16 -1 19 -3 4 -6 -2 -5 -13z"/>
<path d="M3236 5205 c-4 -11 1 -15 19 -15 16 0 25 6 25 15 0 8 -9 15 -19 15
-10 0 -21 -7 -25 -15z"/>
<path d="M4 4915 c0 -115 2 -161 3 -102 2 59 2 154 0 210 -1 56 -3 8 -3 -108z"/>
<path d="M3197 5113 c-16 -15 -4 -23 34 -21 39 1 40 2 17 14 -26 15 -42 17
-51 7z"/>
<path d="M3115 4939 c-9 -13 12 -29 38 -29 26 0 17 34 -10 38 -11 2 -24 -2
-28 -9z"/>
<path d="M3260 4930 c-21 -7 -21 -8 -5 -9 11 0 27 4 35 9 18 11 5 11 -30 0z"/>
<path d="M4038 4833 c7 -3 16 -2 19 1 4 3 -2 6 -13 5 -11 0 -14 -3 -6 -6z"/>
<path d="M3698 4803 c7 -3 16 -2 19 1 4 3 -2 6 -13 5 -11 0 -14 -3 -6 -6z"/>
<path d="M3743 4793 c9 -2 23 -2 30 0 6 3 -1 5 -18 5 -16 0 -22 -2 -12 -5z"/>
<path d="M3873 4746 c7 -14 18 -26 25 -26 19 0 10 20 -16 38 -20 13 -21 13 -9
-12z"/>
<path d="M4128 4753 c7 -3 16 -2 19 1 4 3 -2 6 -13 5 -11 0 -14 -3 -6 -6z"/>
<path d="M3214 4739 c-3 -6 -20 -17 -38 -25 -24 -10 -26 -13 -10 -14 11 0 31
11 44 25 13 14 21 25 17 25 -3 0 -9 -5 -13 -11z"/>
<path d="M3838 4705 c-3 -3 -34 -12 -69 -20 -43 -9 -54 -14 -33 -14 33 -1 92
16 109 30 5 5 7 9 4 9 -3 0 -8 -2 -11 -5z"/>
<path d="M3088 4683 c12 -2 30 -2 40 0 9 3 -1 5 -23 4 -22 0 -30 -2 -17 -4z"/>
<path d="M3280 4680 c0 -5 5 -10 11 -10 5 0 7 5 4 10 -3 6 -8 10 -11 10 -2 0
-4 -4 -4 -10z"/>
<path d="M3548 4668 c14 -18 95 -58 114 -57 7 0 -5 7 -27 16 -22 9 -53 26 -70
37 -21 14 -26 15 -17 4z"/>
<path d="M3307 4649 c7 -7 15 -10 18 -7 3 3 -2 9 -12 12 -14 6 -15 5 -6 -5z"/>
<path d="M3 4465 c0 -22 2 -30 4 -17 2 12 2 30 0 40 -3 9 -5 -1 -4 -23z"/>
<path d="M4101 4408 c-1 -23 15 -31 36 -19 16 9 16 10 -4 11 -12 0 -24 6 -26
13 -3 7 -6 6 -6 -5z"/>
<path d="M4312 4370 c0 -14 2 -19 5 -12 2 6 2 18 0 25 -3 6 -5 1 -5 -13z"/>
<path d="M4165 4360 c10 -11 20 -20 23 -20 3 0 -3 9 -13 20 -10 11 -20 20 -23
20 -3 0 3 -9 13 -20z"/>
<path d="M4400 4287 c14 -16 34 -33 45 -39 21 -11 20 -10 -35 37 l-35 30 25
-28z"/>
<path d="M4508 4223 c7 -3 16 -2 19 1 4 3 -2 6 -13 5 -11 0 -14 -3 -6 -6z"/>
<path d="M4 4000 c0 -80 2 -112 3 -72 2 39 2 105 0 145 -1 39 -3 7 -3 -73z"/>
<path d="M3 3620 c0 -30 2 -43 4 -27 2 15 2 39 0 55 -2 15 -4 2 -4 -28z"/>
<path d="M3 3495 c0 -27 2 -38 4 -22 2 15 2 37 0 50 -2 12 -4 0 -4 -28z"/>
<path d="M5 2435 c0 -264 1 -371 2 -237 2 134 2 350 0 480 -1 130 -2 21 -2
-243z"/>
<path d="M85 1870 c-3 -5 -1 -10 4 -10 6 0 11 5 11 10 0 6 -2 10 -4 10 -3 0
-8 -4 -11 -10z"/>
<path d="M2 1780 c0 -14 2 -19 5 -12 2 6 2 18 0 25 -3 6 -5 1 -5 -13z"/>
<path d="M98 1789 c-16 -6 -28 -18 -28 -27 0 -14 10 -17 50 -17 27 0 50 4 50
8 0 4 15 5 33 2 17 -3 43 -7 57 -9 14 -1 31 -6 38 -10 7 -4 12 -5 12 -2 0 3
-18 17 -40 31 -45 28 -130 40 -172 24z"/>
<path d="M95 1639 c29 -64 31 -66 80 -72 22 -3 52 -7 68 -10 23 -4 25 -2 15
10 -20 24 -72 47 -101 44 -15 -1 -27 1 -26 6 3 18 -2 30 -21 51 -34 37 -40 25
-15 -29z"/>
<path d="M91 1533 c0 -17 -5 -35 -11 -38 -14 -9 -12 -92 3 -101 6 -4 9 -4 5 1
-4 4 2 23 13 42 11 18 17 33 12 33 -21 1 25 20 47 20 20 0 22 -2 10 -10 -10
-6 -3 -9 27 -7 34 1 53 -6 97 -37 38 -26 56 -45 56 -59 0 -20 1 -20 17 -4 13
13 15 20 5 29 -7 7 -12 19 -12 28 0 9 -15 22 -35 30 -20 8 -43 22 -51 32 -9 9
-39 25 -68 34 -28 9 -55 20 -61 25 -16 16 -25 10 -25 -18 0 -29 -15 -22 -23
12 -3 13 -5 9 -6 -12z"/>
<path d="M3 1505 c0 -22 2 -30 4 -17 2 12 2 30 0 40 -3 9 -5 -1 -4 -23z"/>
<path d="M4 1270 c0 -74 1 -105 3 -67 2 37 2 97 0 135 -2 37 -3 6 -3 -68z"/>
<path d="M109 1280 c-1 -30 -2 -67 -1 -82 1 -38 31 -98 49 -98 8 0 11 -5 7
-12 -4 -7 -4 -10 1 -6 4 4 17 2 29 -4 18 -9 17 -7 -5 18 -15 16 -29 40 -32 54
-3 14 -15 61 -25 105 l-20 80 -3 -55z m25 -96 c3 -11 9 -32 16 -49 10 -27 9
-28 -4 -15 -14 14 -36 102 -22 89 4 -4 8 -15 10 -25z"/>
<path d="M300 1289 c7 -11 14 -18 17 -15 8 8 -5 36 -17 36 -7 0 -7 -6 0 -21z"/>
<path d="M350 1257 c0 -10 8 -17 18 -17 9 0 13 4 7 8 -5 4 -13 11 -17 16 -5 5
-8 2 -8 -7z"/>
<path d="M2 1040 c0 -14 2 -19 5 -12 2 6 2 18 0 25 -3 6 -5 1 -5 -13z"/>
<path d="M965 860 c-3 -5 1 -10 10 -10 9 0 13 5 10 10 -3 6 -8 10 -10 10 -2 0
-7 -4 -10 -10z"/>
<path d="M145 700 c3 -5 10 -10 16 -10 5 0 9 5 9 10 0 6 -7 10 -16 10 -8 0
-12 -4 -9 -10z"/>
<path d="M138 673 c-17 -4 -14 -33 4 -33 5 0 6 5 3 10 -3 6 -1 10 4 10 17 0
13 -32 -6 -46 -14 -10 -15 -15 -6 -25 7 -7 16 -10 19 -6 10 10 17 97 8 96 -5
-1 -17 -3 -26 -6z"/>
<path d="M1985 620 c-3 -5 -1 -10 4 -10 6 0 11 5 11 10 0 6 -2 10 -4 10 -3 0
-8 -4 -11 -10z"/>
<path d="M1948 613 c7 -3 16 -2 19 1 4 3 -2 6 -13 5 -11 0 -14 -3 -6 -6z"/>
<path d="M2033 613 c9 -2 23 -2 30 0 6 3 -1 5 -18 5 -16 0 -22 -2 -12 -5z"/>
<path d="M2739 595 c44 -20 75 -19 37 0 -15 8 -38 15 -50 15 -16 -1 -13 -4 13
-15z"/>
<path d="M2 575 c0 -16 2 -22 5 -12 2 9 2 23 0 30 -3 6 -5 -1 -5 -18z"/>
<path d="M2456 592 c-3 -5 1 -9 9 -9 8 0 12 4 9 9 -3 4 -7 8 -9 8 -2 0 -6 -4
-9 -8z"/>
<path d="M2140 580 c36 -11 52 -11 45 0 -3 6 -21 10 -38 9 -31 -1 -31 -1 -7
-9z"/>
<path d="M2378 583 c7 -3 16 -2 19 1 4 3 -2 6 -13 5 -11 0 -14 -3 -6 -6z"/>
<path d="M4470 580 c-24 -5 -28 -8 -12 -9 22 -1 22 -2 8 -23 -9 -12 -16 -32
-16 -44 0 -12 -7 -25 -16 -28 -9 -3 -14 -13 -11 -20 3 -8 -1 -17 -10 -20 -11
-5 -14 -1 -11 12 4 15 0 17 -26 14 -41 -6 -55 -18 -49 -42 3 -13 12 -18 25
-17 11 2 46 0 79 -5 52 -7 62 -5 79 12 17 17 20 33 20 100 0 58 -3 80 -12 79
-7 -1 -29 -5 -48 -9z m7 -116 c-3 -3 -12 -4 -19 -1 -8 3 -5 6 6 6 11 1 17 -2
13 -5z"/>
<path d="M2060 559 c0 -5 5 -7 10 -4 6 3 10 8 10 11 0 2 -4 4 -10 4 -5 0 -10
-5 -10 -11z"/>
<path d="M2590 550 c-8 -5 -11 -12 -8 -16 10 -9 38 3 38 16 0 12 -10 13 -30 0z"/>
<path d="M3987 549 c7 -7 15 -10 18 -7 3 3 -2 9 -12 12 -14 6 -15 5 -6 -5z"/>
<path d="M4190 550 c0 -5 6 -10 13 -11 6 0 3 -4 -8 -9 -19 -8 -19 -9 2 -9 27
-1 41 18 22 30 -19 12 -29 11 -29 -1z"/>
<path d="M3944 523 c10 -11 56 -11 56 -1 0 4 -14 8 -32 8 -17 0 -28 -3 -24 -7z"/>
<path d="M4380 526 c0 -9 30 -14 35 -6 4 6 -3 10 -14 10 -12 0 -21 -2 -21 -4z"/>
<path d="M135 510 c-3 -5 -1 -10 4 -10 6 0 11 5 11 10 0 6 -2 10 -4 10 -3 0
-8 -4 -11 -10z"/>
<path d="M2 440 c0 -19 2 -27 5 -17 2 9 2 25 0 35 -3 9 -5 1 -5 -18z"/>
<path d="M4171 449 l-33 -18 38 -6 c22 -3 49 -8 62 -11 12 -2 22 1 22 6 0 7 8
9 19 5 11 -3 23 0 27 6 5 9 -3 11 -30 6 -22 -3 -34 -2 -31 4 4 5 1 9 -5 9 -6
0 -8 5 -5 10 10 15 -26 10 -64 -11z"/>
<path d="M107 396 c-36 -43 -37 -48 -37 -122 0 -65 4 -84 25 -121 38 -64 83
-83 196 -83 l92 0 -5 49 c-6 64 -42 136 -95 188 -51 51 -132 105 -145 96 -6
-3 -5 4 1 16 17 32 9 26 -32 -23z m193 -157 c0 -5 -7 -9 -16 -9 -8 0 -12 -4
-9 -10 3 -5 1 -10 -4 -10 -6 0 -11 8 -11 18 0 14 -2 14 -9 3 -7 -10 -9 -7 -8
12 2 24 3 24 20 10 9 -9 17 -11 17 -5 0 6 -4 14 -10 17 -5 3 -10 12 -10 18 1
14 40 -30 40 -44z"/>
<path d="M2 188 l-2 -188 193 2 c170 1 181 2 92 8 -116 8 -140 16 -193 65 -57
51 -75 95 -82 205 -6 81 -7 67 -8 -92z"/>
<path d="M2953 343 c4 -7 0 -13 -10 -15 -16 -3 -16 -4 -2 -10 26 -10 43 6 23
23 -10 8 -15 9 -11 2z"/>
<path d="M3558 333 c7 -3 16 -2 19 1 4 3 -2 6 -13 5 -11 0 -14 -3 -6 -6z"/>
<path d="M3628 333 c12 -2 30 -2 40 0 9 3 -1 5 -23 4 -22 0 -30 -2 -17 -4z"/>
<path d="M3718 333 c6 -2 18 -2 25 0 6 3 1 5 -13 5 -14 0 -19 -2 -12 -5z"/>
<path d="M2595 266 c-10 -7 -15 -18 -11 -24 3 -6 -2 -13 -13 -17 -26 -8 -36
-35 -13 -35 27 0 38 13 37 42 -1 24 3 27 30 26 48 -1 69 2 62 8 -13 13 -75 13
-92 0z"/>
<path d="M3835 270 c-7 -11 -2 -13 57 -29 29 -7 40 -6 49 5 7 8 9 17 7 20 -11
11 -107 14 -113 4z"/>
<path d="M4100 269 c0 -6 -9 -8 -21 -4 -16 6 -20 4 -13 -6 6 -12 5 -12 -9 0
-20 16 -23 2 -4 -18 10 -11 9 -13 -4 -8 -11 4 -20 -3 -28 -19 -14 -31 -9 -30
29 5 19 17 39 27 50 24 21 -6 35 23 14 31 -8 3 -14 1 -14 -5z"/>
<path d="M3968 263 c6 -2 18 -2 25 0 6 3 1 5 -13 5 -14 0 -19 -2 -12 -5z"/>
<path d="M4020 262 c0 -7 -9 -12 -20 -12 -11 0 -20 -4 -20 -10 0 -17 37 -11
44 6 4 9 4 19 1 22 -3 3 -5 0 -5 -6z"/>
<path d="M4166 254 c-8 -21 44 -23 54 -3 9 16 7 18 -20 16 -16 -1 -32 -7 -34
-13z"/>
<path d="M4380 250 c-13 -9 -13 -10 0 -10 8 0 22 5 30 10 13 9 13 10 0 10 -8
0 -22 -5 -30 -10z"/>
<path d="M4241 236 c-6 -7 -6 -18 -2 -25 7 -10 9 -10 14 2 3 9 16 17 29 19 22
3 21 4 -4 9 -16 4 -32 1 -37 -5z"/>
<path d="M2622 223 c2 -10 11 -19 20 -21 12 -2 15 2 11 17 -7 25 -36 28 -31 4z"/>
<path d="M2460 189 c0 -11 5 -17 10 -14 6 3 10 13 10 21 0 8 -4 14 -10 14 -5
0 -10 -9 -10 -21z"/>
<path d="M3510 184 c-12 -31 -12 -34 -1 -34 5 0 11 14 13 30 6 37 1 38 -12 4z"/>
<path d="M3961 200 c-18 -11 0 -19 23 -10 16 5 17 8 4 12 -8 4 -21 3 -27 -2z"/>
<path d="M3665 166 c-27 -8 -36 -14 -27 -20 7 -4 19 -3 26 3 7 6 21 9 30 5 18
-7 66 3 66 14 0 11 -51 10 -95 -2z"/>
<path d="M4455 34 c-32 -19 -36 -24 -18 -24 12 0 35 11 50 25 35 31 20 30 -32
-1z"/>
<path d="M658 3 c68 -2 176 -2 240 0 64 1 9 3 -123 3 -132 0 -185 -2 -117 -3z"/>
<path d="M1058 3 c7 -3 16 -2 19 1 4 3 -2 6 -13 5 -11 0 -14 -3 -6 -6z"/>
<path d="M1292 3 c59 -2 158 -2 220 0 62 1 14 3 -107 3 -121 0 -172 -2 -113
-3z"/>
<path d="M1808 3 c12 -2 32 -2 45 0 12 2 2 4 -23 4 -25 0 -35 -2 -22 -4z"/>
<path d="M2048 3 c28 -2 76 -2 105 0 28 2 5 3 -53 3 -58 0 -81 -1 -52 -3z"/>
<path d="M2403 3 c26 -2 68 -2 95 0 26 2 4 3 -48 3 -52 0 -74 -1 -47 -3z"/>
<path d="M2658 3 c29 -2 74 -2 100 0 26 2 2 3 -53 3 -55 0 -76 -1 -47 -3z"/>
<path d="M2873 3 c20 -2 54 -2 75 0 20 2 3 4 -38 4 -41 0 -58 -2 -37 -4z"/>
<path d="M3238 3 c17 -2 47 -2 65 0 17 2 3 4 -33 4 -36 0 -50 -2 -32 -4z"/>
<path d="M3368 3 c6 -2 18 -2 25 0 6 3 1 5 -13 5 -14 0 -19 -2 -12 -5z"/>
<path d="M3603 3 c26 -2 68 -2 95 0 26 2 4 3 -48 3 -52 0 -74 -1 -47 -3z"/>
<path d="M3883 3 c15 -2 37 -2 50 0 12 2 0 4 -28 4 -27 0 -38 -2 -22 -4z"/>
<path d="M4158 3 c12 -2 32 -2 45 0 12 2 2 4 -23 4 -25 0 -35 -2 -22 -4z"/>
</g>
</svg>
